<svg xmlns="http://www.w3.org/2000/svg" viewBox="0 0 1200 675" role="img" aria-label="Underfitting・Good Fit・Overfitting">
<defs><filter id="s"><feDropShadow dx="0" dy="8" stdDeviation="12" flood-color="#5c9dcc" flood-opacity=".18"/></filter></defs>
<rect width="1200" height="675" fill="#f8fcff"/>
<text x="600" y="72" text-anchor="middle" font-size="45" font-weight="900" fill="#082c63" font-family="'Noto Sans JP','Hiragino Sans','Yu Gothic',sans-serif">Generalizationを見る3つの状態</text>
<text x="600" y="115" text-anchor="middle" font-size="22" fill="#547899" font-family="'Noto Sans JP','Hiragino Sans','Yu Gothic',sans-serif">単純すぎても、複雑すぎても、未知Dataには弱くなる</text>
<g filter="url(#s)"><rect x="55" y="175" width="340" height="365" rx="32" fill="#fff"/><text x="225" y="225" text-anchor="middle" font-size="28" font-weight="800" fill="#7f9bb2" font-family="'Noto Sans JP','Hiragino Sans','Yu Gothic',sans-serif">Underfitting</text><g fill="#35a8e7"><circle cx="103" cy="410" r="7"/><circle cx="151" cy="429" r="7"/><circle cx="199" cy="413" r="7"/><circle cx="247" cy="432" r="7"/><circle cx="295" cy="416" r="7"/><circle cx="343" cy="435" r="7"/><circle cx="103" cy="364" r="7"/><circle cx="151" cy="383" r="7"/><circle cx="199" cy="367" r="7"/><circle cx="247" cy="386" r="7"/><circle cx="295" cy="370" r="7"/><circle cx="343" cy="389" r="7"/><circle cx="103" cy="318" r="7"/><circle cx="151" cy="302" r="7"/><circle cx="199" cy="321" r="7"/><circle cx="247" cy="305" r="7"/><circle cx="295" cy="324" r="7"/><circle cx="343" cy="308" r="7"/></g><path d="M95 450 L330 270" fill="none" stroke="#7f9bb2" stroke-width="8" stroke-linecap="round"/></g><g filter="url(#s)"><rect x="430" y="175" width="340" height="365" rx="32" fill="#fff"/><text x="600" y="225" text-anchor="middle" font-size="28" font-weight="800" fill="#1c8fd3" font-family="'Noto Sans JP','Hiragino Sans','Yu Gothic',sans-serif">Good Fit</text><g fill="#35a8e7"><circle cx="478" cy="410" r="7"/><circle cx="526" cy="429" r="7"/><circle cx="574" cy="413" r="7"/><circle cx="622" cy="432" r="7"/><circle cx="670" cy="416" r="7"/><circle cx="718" cy="435" r="7"/><circle cx="478" cy="364" r="7"/><circle cx="526" cy="383" r="7"/><circle cx="574" cy="367" r="7"/><circle cx="622" cy="386" r="7"/><circle cx="670" cy="370" r="7"/><circle cx="718" cy="389" r="7"/><circle cx="478" cy="318" r="7"/><circle cx="526" cy="302" r="7"/><circle cx="574" cy="321" r="7"/><circle cx="622" cy="305" r="7"/><circle cx="670" cy="324" r="7"/><circle cx="718" cy="308" r="7"/></g><path d="M465 455 C515 445 545 360 595 350 C650 342 685 245 720 235" fill="none" stroke="#1c8fd3" stroke-width="8" stroke-linecap="round"/></g><g filter="url(#s)"><rect x="805" y="175" width="340" height="365" rx="32" fill="#fff"/><text x="975" y="225" text-anchor="middle" font-size="28" font-weight="800" fill="#e87652" font-family="'Noto Sans JP','Hiragino Sans','Yu Gothic',sans-serif">Overfitting</text><g fill="#35a8e7"><circle cx="853" cy="410" r="7"/><circle cx="901" cy="429" r="7"/><circle cx="949" cy="413" r="7"/><circle cx="997" cy="432" r="7"/><circle cx="1045" cy="416" r="7"/><circle cx="1093" cy="435" r="7"/><circle cx="853" cy="364" r="7"/><circle cx="901" cy="383" r="7"/><circle cx="949" cy="367" r="7"/><circle cx="997" cy="386" r="7"/><circle cx="1045" cy="370" r="7"/><circle cx="1093" cy="389" r="7"/><circle cx="853" cy="318" r="7"/><circle cx="901" cy="302" r="7"/><circle cx="949" cy="321" r="7"/><circle cx="997" cy="305" r="7"/><circle cx="1045" cy="324" r="7"/><circle cx="1093" cy="308" r="7"/></g><path d="M840 455 C865 355 900 470 930 330 C965 220 995 420 1035 270 C1075 165 1090 320 1110 230" fill="none" stroke="#e87652" stroke-width="8" stroke-linecap="round"/></g>
<text x="225" y="590" text-anchor="middle" font-size="20" fill="#687f96" font-family="'Noto Sans JP','Hiragino Sans','Yu Gothic',sans-serif">Patternを捉えきれない</text>
<text x="600" y="590" text-anchor="middle" font-size="20" fill="#687f96" font-family="'Noto Sans JP','Hiragino Sans','Yu Gothic',sans-serif">未知Dataにも通用する</text>
<text x="975" y="590" text-anchor="middle" font-size="20" fill="#687f96" font-family="'Noto Sans JP','Hiragino Sans','Yu Gothic',sans-serif">Noiseまで覚えてしまう</text>
</svg>